<?xml version="1.0" standalone="no"?>
<!DOCTYPE svg PUBLIC "-//W3C//DTD SVG 20010904//EN"
 "http://www.w3.org/TR/2001/REC-SVG-20010904/DTD/svg10.dtd">
<svg version="1.0" xmlns="http://www.w3.org/2000/svg"
 width="700.000000pt" height="700.000000pt" viewBox="0 0 700.000000 700.000000"
 preserveAspectRatio="xMidYMid meet">
<metadata>
Created by potrace 1.14, written by Peter Selinger 2001-2017
</metadata>
<g transform="translate(0.000000,700.000000) scale(0.100000,-0.100000)"
fill="#000000" stroke="none">
<path d="M0 3500 l0 -3500 3500 0 3500 0 0 3500 0 3500 -3500 0 -3500 0 0
-3500z m3671 3350 c348 -36 667 -166 941 -387 l88 -70 91 -6 c410 -30 846
-248 1139 -571 263 -291 419 -647 456 -1046 6 -68 11 -79 46 -120 187 -218
330 -515 390 -811 20 -99 23 -143 23 -339 0 -196 -3 -240 -23 -339 -59 -290
-181 -550 -363 -776 l-65 -81 -12 -106 c-42 -389 -194 -730 -453 -1015 -292
-322 -729 -541 -1138 -570 l-91 -6 -88 -70 c-357 -287 -808 -427 -1249 -389
-241 21 -425 72 -638 177 -143 70 -230 125 -347 220 l-77 62 -93 7 c-188 13
-432 82 -615 174 -557 280 -920 815 -979 1442 -6 68 -11 79 -46 120 -188 219
-330 513 -390 812 -20 98 -23 143 -23 338 0 195 3 240 23 338 60 299 202 593
390 812 35 41 40 52 46 120 59 627 422 1162 979 1442 183 91 430 162 615 175
l92 6 83 66 c373 299 828 437 1288 391z"/>
<path d="M3320 6464 c-175 -32 -273 -60 -385 -109 l-60 -27 95 -34 c135 -47
319 -143 433 -225 l97 -70 83 59 c154 110 277 175 448 236 l94 34 -59 27 c-77
34 -187 70 -279 90 -70 16 -408 30 -467 19z"/>
<path d="M2414 5957 c-140 -177 -235 -378 -279 -586 -23 -110 -24 -107 44
-115 84 -10 273 -59 366 -96 88 -35 235 -107 295 -145 22 -14 42 -25 44 -25 2
0 7 15 11 33 36 171 169 468 275 615 33 46 60 85 60 86 0 2 -35 26 -77 54
-105 69 -268 145 -378 177 -84 24 -255 55 -300 54 -12 0 -37 -21 -61 -52z"/>
<path d="M4400 5995 c-125 -20 -251 -60 -370 -116 -95 -45 -260 -144 -260
-156 0 -3 13 -22 29 -42 120 -151 264 -462 306 -658 4 -18 8 -33 11 -33 2 0
25 13 52 30 72 44 267 134 352 163 86 29 295 77 334 77 31 0 32 9 11 111 -22
103 -68 235 -114 327 -40 80 -142 236 -185 285 -28 31 -40 32 -166 12z"/>
<path d="M1825 5897 c-345 -149 -620 -436 -751 -785 l-24 -62 78 39 c157 79
351 140 521 165 l86 12 7 45 c39 225 89 391 161 538 24 50 39 91 33 91 -6 0
-56 -20 -111 -43z"/>
<path d="M5096 5849 c56 -111 116 -293 139 -419 10 -52 21 -111 24 -130 l7
-34 86 -12 c166 -24 321 -72 485 -149 l112 -53 -23 61 c-133 355 -428 656
-778 796 -42 17 -81 31 -86 31 -6 0 10 -41 34 -91z"/>
<path d="M3454 5383 c-98 -146 -180 -358 -209 -535 -23 -143 -23 -146 41 -224
71 -87 124 -165 173 -255 38 -71 39 -71 53 -48 8 13 37 62 64 108 27 45 82
124 122 174 81 102 80 99 57 245 -17 106 -63 254 -110 357 -36 79 -132 235
-145 235 -4 0 -25 -26 -46 -57z"/>
<path d="M1625 4860 c-222 -50 -444 -157 -592 -285 -36 -31 -43 -42 -43 -73 0
-115 66 -354 136 -494 34 -69 140 -238 150 -238 2 0 30 20 61 43 165 124 398
234 598 283 39 9 72 18 73 20 2 1 -15 35 -39 75 -110 189 -184 404 -224 652
-7 43 -6 43 -120 17z"/>
<path d="M2120 4871 c0 -3 7 -37 15 -76 44 -208 138 -405 276 -581 l48 -61 83
-7 c95 -8 249 -37 338 -65 56 -18 61 -18 55 -3 -3 9 -17 60 -30 112 -21 84
-31 142 -51 307 -5 38 -12 47 -77 97 -95 73 -220 147 -310 185 -117 48 -347
110 -347 92z"/>
<path d="M4810 4864 c-219 -45 -421 -140 -602 -281 -50 -39 -58 -51 -62 -87
-20 -163 -30 -222 -51 -306 -13 -52 -27 -103 -30 -112 -6 -15 -1 -15 54 3 87
27 247 57 341 65 l81 7 48 61 c103 132 181 274 232 424 27 79 63 232 57 237
-2 1 -32 -4 -68 -11z"/>
<path d="M5255 4843 c-42 -251 -111 -456 -220 -645 -26 -44 -45 -81 -43 -82 2
-1 37 -10 78 -20 80 -20 269 -90 341 -127 73 -37 191 -110 252 -156 31 -23 59
-43 61 -43 10 0 116 169 151 239 48 97 98 252 120 371 25 141 22 155 -50 213
-146 118 -356 218 -552 262 -60 14 -113 25 -120 25 -7 0 -15 -17 -18 -37z"/>
<path d="M645 4075 c-40 -89 -82 -223 -102 -322 -26 -131 -23 -396 5 -525 24
-108 57 -214 97 -303 l27 -60 38 107 c50 139 143 319 225 433 36 50 65 92 65
95 0 3 -29 46 -65 95 -82 114 -175 294 -225 433 l-38 107 -27 -60z"/>
<path d="M6295 4042 c-42 -124 -154 -342 -230 -447 -36 -49 -65 -92 -65 -95 0
-3 29 -45 65 -95 81 -114 175 -294 224 -432 l38 -107 23 50 c70 156 105 288
122 462 21 210 -15 450 -98 651 -20 47 -39 89 -43 93 -3 4 -20 -32 -36 -80z"/>
<path d="M2210 3759 c-209 -27 -409 -99 -587 -211 -35 -22 -63 -43 -63 -48 0
-11 108 -79 195 -123 138 -69 328 -123 497 -141 55 -6 60 -5 95 27 67 59 167
131 256 182 47 28 86 52 86 55 0 3 -39 28 -86 55 -89 51 -189 123 -256 182
-20 18 -45 32 -55 32 -9 -1 -46 -5 -82 -10z"/>
<path d="M4628 3716 c-69 -59 -197 -147 -271 -186 -26 -14 -47 -27 -47 -30 0
-3 21 -16 47 -30 74 -39 202 -127 271 -186 l64 -54 56 6 c168 18 359 72 497
141 87 44 195 112 195 123 0 11 -108 79 -195 123 -138 69 -329 123 -497 141
l-56 6 -64 -54z"/>
<path d="M1217 3148 c-107 -161 -180 -344 -211 -523 -25 -143 -23 -157 27
-200 108 -93 292 -194 442 -243 92 -30 253 -67 261 -59 2 2 11 46 20 98 32
189 107 398 199 562 30 53 55 99 55 101 0 2 -17 7 -37 11 -62 11 -222 65 -316
106 -100 43 -234 121 -320 186 -31 23 -59 43 -61 43 -3 0 -29 -37 -59 -82z"/>
<path d="M5705 3220 c-9 -15 -168 -120 -245 -163 -121 -66 -395 -167 -454
-167 -9 0 -16 -2 -16 -5 0 -2 25 -48 55 -102 94 -170 167 -374 199 -562 9 -52
18 -96 21 -99 10 -11 241 49 335 87 118 47 259 128 345 198 71 58 74 70 50
210 -31 185 -104 368 -212 531 -53 81 -66 92 -78 72z"/>
<path d="M2875 2918 c-87 -27 -238 -56 -333 -64 l-83 -7 -48 -61 c-105 -134
-180 -271 -231 -422 -28 -81 -64 -234 -58 -239 8 -6 154 30 245 60 125 42 213
86 329 164 157 107 153 102 165 211 11 103 39 246 63 325 8 27 14 50 13 50 -1
1 -29 -7 -62 -17z"/>
<path d="M4065 2922 c3 -9 17 -60 30 -112 21 -84 31 -142 51 -307 5 -39 11
-47 85 -102 150 -113 293 -186 460 -235 99 -28 189 -46 189 -37 0 3 -7 37 -15
76 -44 208 -138 405 -276 581 l-48 61 -81 7 c-94 8 -254 38 -341 65 -55 18
-60 18 -54 3z"/>
<path d="M3471 2653 c-33 -69 -118 -197 -184 -277 -65 -78 -65 -80 -42 -224
29 -177 111 -389 209 -534 21 -32 42 -58 46 -58 13 0 109 156 145 235 47 103
93 251 110 357 23 146 24 143 -58 245 -40 50 -96 131 -124 180 -81 138 -74
133 -102 76z"/>
<path d="M2865 2001 c-42 -39 -308 -162 -432 -200 -83 -25 -254 -61 -289 -61
-29 0 -30 -11 -9 -111 22 -103 68 -235 114 -327 48 -95 148 -246 190 -286 l30
-29 108 16 c147 21 267 58 399 121 94 45 138 71 248 148 5 3 -5 24 -22 45
-121 153 -265 463 -307 661 -7 33 -14 39 -30 23z"/>
<path d="M4100 1958 c-48 -204 -184 -491 -301 -639 -16 -20 -29 -39 -29 -42 0
-2 35 -27 78 -55 173 -114 392 -196 591 -222 l93 -12 30 29 c41 39 141 190
189 285 46 92 92 224 114 327 21 102 20 111 -11 111 -46 0 -252 50 -357 86
-98 35 -263 112 -338 160 -21 13 -40 24 -43 24 -2 0 -10 -24 -16 -52z"/>
<path d="M1074 1888 c110 -294 332 -554 611 -716 67 -39 233 -112 254 -112 5
0 -11 41 -35 91 -72 144 -122 312 -162 538 l-7 45 -86 12 c-170 25 -364 86
-521 165 l-78 39 24 -62z"/>
<path d="M5870 1911 c-152 -78 -349 -140 -519 -165 l-85 -12 -7 -34 c-3 -19
-14 -78 -24 -130 -23 -127 -83 -308 -139 -419 -25 -50 -41 -91 -35 -91 6 0 45
14 87 31 350 140 645 441 778 797 13 34 23 62 21 62 -1 -1 -36 -18 -77 -39z"/>
<path d="M3435 954 c-132 -100 -297 -188 -466 -248 l-94 -34 58 -26 c198 -87
380 -121 617 -113 207 7 350 38 520 114 l55 25 -90 32 c-176 64 -299 128 -452
238 -44 32 -83 58 -85 58 -1 0 -30 -21 -63 -46z"/>
</g>
</svg>
